<?xml version="1.0" encoding="utf-8"?>
<!-- Generator: Adobe Illustrator 27.8.1, SVG Export Plug-In . SVG Version: 6.00 Build 0)  -->
<svg version="1.1" id="Layer_1" xmlns="http://www.w3.org/2000/svg" xmlns:xlink="http://www.w3.org/1999/xlink" x="0px" y="0px"
	 viewBox="0 0 388.5 86.3" style="enable-background:new 0 0 388.5 86.3;" xml:space="preserve">
<style type="text/css">
	.st0{clip-path:url(#SVGID_00000137833714723617094970000013421793354867057085_);}
	.st1{fill:#FFFFFF;}
</style>
<g>
	<g>
		<g>
			<g>
				<defs>
					<rect id="SVGID_1_" x="-28.9" y="-28" width="446.6" height="146.9"/>
				</defs>
				<clipPath id="SVGID_00000028284586468565112980000000207911752545414555_">
					<use xlink:href="#SVGID_1_"  style="overflow:visible;"/>
				</clipPath>
				<g style="clip-path:url(#SVGID_00000028284586468565112980000000207911752545414555_);">
					<path class="st1" d="M124.7,33.2c0-1.8-0.2-3.5-0.6-5.2c-0.4-1.5-1-2.9-1.9-4.2c-0.9-1.2-2-2.1-3.3-2.8c-1.5-0.7-3.2-1.1-4.9-1
						c-1.7,0-3.4,0.3-4.9,1.1c-1.3,0.7-2.5,1.8-3.3,3c-0.9,1.3-1.5,2.7-1.9,4.2c-0.4,1.6-0.6,3.3-0.6,5c0,1.8,0.2,3.6,0.7,5.4
						c0.4,1.5,1.1,3,2,4.2s2,2.1,3.4,2.7c1.4,0.7,3,1,4.6,1c1.7,0,3.4-0.3,4.9-1.1c1.3-0.7,2.5-1.8,3.3-3c0.9-1.3,1.5-2.7,1.9-4.3
						s0.6-3.3,0.6-4.9 M114.1,49.8c-1.9,0-3.9-0.4-5.7-1.1c-1.7-0.7-3.3-1.7-4.6-3.1c-1.4-1.5-2.5-3.3-3.1-5.2
						c-0.8-2.3-1.2-4.8-1.2-7.2c0-2.2,0.3-4.4,0.9-6.5c0.5-1.9,1.5-3.7,2.7-5.3c1.2-1.5,2.8-2.7,4.6-3.5c4.1-1.7,8.7-1.7,12.8,0
						c1.8,0.8,3.4,2,4.6,3.5c1.3,1.5,2.2,3.3,2.7,5.3c0.6,2.1,0.9,4.3,0.9,6.5c0,2.3-0.3,4.6-1,6.8c-0.6,1.9-1.6,3.7-2.9,5.2
						s-2.9,2.6-4.6,3.4C118.2,49.5,116.1,49.9,114.1,49.8"/>
					<path class="st1" d="M137.9,49h-3.6V17.5h3.6v5.9h0.1c0.7-2.1,2.1-4,3.9-5.3c1.9-1.1,4.1-1.6,6.4-1.5v4c-1.8-0.1-3.5,0.3-5.1,1
						c-1.3,0.6-2.4,1.6-3.2,2.8c-0.8,1.3-1.4,2.7-1.6,4.2c-0.3,1.6-0.5,3.3-0.5,5L137.9,49z"/>
					<path class="st1" d="M173.5,31c0-1.5-0.2-2.9-0.6-4.3c-0.4-1.3-1-2.5-1.9-3.5s-1.9-1.8-3.1-2.4c-1.4-0.6-2.8-0.9-4.3-0.9
						s-2.9,0.3-4.3,0.9c-1.2,0.6-2.3,1.4-3.2,2.5c-0.9,1-1.6,2.2-2.1,3.5c-0.5,1.4-0.9,2.8-1,4.3L173.5,31z M153,34
						c0,1.6,0.2,3.3,0.7,4.8c0.4,1.5,1.1,2.8,2,4c0.9,1.1,2,2,3.3,2.7c1.4,0.7,3,1,4.6,1c2.2,0.1,4.4-0.6,6.1-1.9
						c1.7-1.3,2.9-3.2,3.4-5.3h4.1c-0.4,1.5-1,2.8-1.8,4.2c-0.7,1.3-1.6,2.4-2.7,3.3c-1.2,1-2.5,1.7-3.9,2.2
						c-1.7,0.5-3.5,0.8-5.2,0.8c-2.2,0.1-4.4-0.4-6.5-1.2c-1.8-0.8-3.3-2-4.5-3.5c-1.2-1.6-2.1-3.3-2.6-5.2
						c-0.6-2.1-0.9-4.3-0.9-6.5s0.3-4.4,1-6.5c0.6-1.9,1.6-3.7,2.9-5.3c1.2-1.5,2.8-2.7,4.5-3.6c1.9-0.9,4-1.4,6.1-1.3
						c3.9-0.2,7.7,1.5,10.2,4.5s3.7,7.3,3.6,13L153,34z"/>
					<path class="st1" d="M194.4,49.1c-0.4,0.1-1,0.2-1.8,0.4s-1.6,0.3-2.4,0.3c-1.5,0.1-3-0.4-4.2-1.4c-1-0.9-1.4-2.6-1.4-4.9v-23
						h-4.4v-3h4.4V8.7h3.6v8.8h5.9v3h-5.9v21.6c0,0.8,0,1.4,0.1,2c0,0.5,0.1,1,0.4,1.4c0.2,0.4,0.5,0.6,0.9,0.8
						c0.6,0.2,1.2,0.3,1.8,0.2c0.5,0,1,0,1.5-0.1s1-0.2,1.5-0.3L194.4,49.1L194.4,49.1z"/>
					<path class="st1" d="M199,49V5.2h3.6v16.7c1.3-1.4,2.9-2.7,4.5-3.8c1.7-1,3.7-1.5,5.6-1.5c1.9,0,3.7,0.3,5.4,1s3.2,1.9,4.2,3.5
						c0.7,1,1.2,2.2,1.4,3.5c0.1,1.2,0.2,2.5,0.2,3.7V49h-3.6V28.4c0-2.8-0.6-5-1.9-6.4c-1.3-1.4-3.3-2.1-6.3-2.1
						c-1.1,0-2.1,0.2-3.1,0.5c-0.9,0.3-1.8,0.8-2.5,1.4c-0.7,0.5-1.4,1.2-1.9,1.9c-0.5,0.7-0.9,1.5-1.2,2.3
						c-0.3,0.9-0.6,1.9-0.7,2.9c-0.1,0.9-0.1,2-0.1,3v17H199V49z"/>
					<path class="st1" d="M254.8,33.2c0-1.8-0.2-3.5-0.6-5.2c-0.4-1.5-1-3-1.9-4.2c-0.8-1.2-2-2.1-3.2-2.8c-1.5-0.7-3.2-1.1-4.9-1
						c-1.7,0-3.4,0.3-4.9,1.1c-1.3,0.7-2.5,1.8-3.3,3c-0.9,1.3-1.5,2.7-1.9,4.2c-0.4,1.6-0.6,3.3-0.6,5c0,1.8,0.2,3.6,0.7,5.4
						c0.4,1.5,1.1,3,2,4.2s2,2.1,3.4,2.7c1.4,0.7,3,1,4.6,1c1.7,0,3.4-0.3,4.9-1.1c1.3-0.7,2.5-1.8,3.3-3c0.9-1.3,1.5-2.7,1.9-4.3
						s0.6-3.3,0.6-4.9 M244.1,49.8c-1.9,0-3.9-0.4-5.7-1.1c-1.7-0.7-3.3-1.7-4.6-3.1c-1.4-1.5-2.4-3.3-3.1-5.2
						c-0.8-2.3-1.2-4.8-1.1-7.2c0-2.2,0.3-4.4,0.9-6.5c0.6-1.9,1.5-3.7,2.7-5.3c1.2-1.5,2.8-2.7,4.6-3.5c2-0.9,4.2-1.4,6.4-1.3
						c2.2-0.1,4.4,0.4,6.4,1.3c1.8,0.8,3.3,2,4.6,3.5c1.3,1.5,2.2,3.3,2.7,5.3c0.6,2.1,0.9,4.3,0.9,6.5c0,2.3-0.3,4.6-1,6.8
						c-0.6,1.9-1.6,3.7-3,5.2c-1.3,1.5-2.9,2.6-4.6,3.4C248.2,49.5,246.1,49.9,244.1,49.8"/>
					<path class="st1" d="M285.5,17.5h3.6V49h-3.6v-4.4c-0.5,0.6-1,1.2-1.6,1.8s-1.3,1.2-2.1,1.6c-1.9,1.2-4.2,1.8-6.4,1.8
						c-1.8,0.1-3.6-0.3-5.3-0.9c-1.3-0.5-2.5-1.4-3.4-2.5s-1.5-2.3-1.9-3.7c-0.4-1.5-0.6-3-0.6-4.6V17.5h3.6v20.7
						c0,2.7,0.6,4.8,1.9,6.2s3.3,2.2,6.2,2.2c1.4,0,2.8-0.3,4-0.9c1.2-0.6,2.2-1.4,3-2.5c0.9-1.1,1.5-2.4,1.9-3.8
						c0.5-1.6,0.7-3.2,0.7-4.8L285.5,17.5z"/>
					<path class="st1" d="M321.1,33.3c0-1.8-0.2-3.6-0.7-5.3c-0.4-1.5-1.1-3-2-4.3c-0.9-1.2-2.1-2.1-3.4-2.8c-1.4-0.7-3-1-4.6-1
						c-1.5,0-2.9,0.3-4.2,0.8c-1.3,0.5-2.5,1.4-3.4,2.4c-1,1.1-1.8,2.4-2.3,3.8c-0.6,1.7-0.8,3.5-0.8,5.2c-0.1,1.9,0.1,3.7,0.5,5.6
						c0.3,1.6,1,3.2,1.9,4.5s2,2.3,3.4,3.1c1.5,0.8,3.2,1.2,4.9,1.1c1.6,0,3.1-0.3,4.5-1.1c1.3-0.7,2.5-1.7,3.4-2.9
						c0.9-1.3,1.7-2.7,2.1-4.2C320.8,36.8,321,35.1,321.1,33.3 M321,17.5h3.6V46c0,2-0.2,4-0.6,6c-0.4,1.8-1.2,3.6-2.3,5.1
						c-1.2,1.5-2.7,2.7-4.5,3.5c-4.3,1.6-8.9,1.7-13.3,0.4c-1.5-0.5-2.9-1.2-4.1-2.2c-1-0.8-1.8-1.8-2.4-3c-0.5-0.9-0.8-1.9-0.9-3
						h3.9c0.2,1,0.7,2,1.3,2.9c0.6,0.8,1.4,1.4,2.2,1.9c0.9,0.4,1.8,0.7,2.8,0.9s2.1,0.2,3.2,0.2c2.1,0.1,4.1-0.3,6-1.3
						c1.4-0.8,2.6-1.9,3.4-3.3c0.8-1.4,1.3-3,1.5-4.7c0.2-1.8,0.3-3.6,0.3-5.3c-1.1,1.9-2.8,3.4-4.8,4.4s-4.2,1.5-6.4,1.5
						c-2.2,0.1-4.3-0.4-6.2-1.4c-1.7-0.9-3.2-2.1-4.4-3.7c-1.2-1.6-2.1-3.4-2.6-5.3c-0.6-2.1-0.9-4.2-0.9-6.3c0-2.2,0.2-4.4,0.8-6.5
						c0.4-1.9,1.3-3.7,2.4-5.3c1.2-1.5,2.7-2.7,4.4-3.5c2-0.9,4.3-1.3,6.5-1.3c1,0,2.1,0.1,3.1,0.4c1.1,0.3,2.1,0.7,3.1,1.2
						s1.9,1.2,2.7,2c0.8,0.8,1.5,1.7,2,2.7h0.2L321,17.5z"/>
					<path class="st1" d="M332.7,49V5.2h3.6v16.7c1.3-1.4,2.9-2.7,4.5-3.8c1.7-1,3.7-1.5,5.6-1.5s3.7,0.3,5.4,1
						c1.7,0.7,3.2,1.9,4.2,3.5c0.7,1,1.2,2.2,1.4,3.5c0.1,1.2,0.2,2.5,0.2,3.7V49H354V28.4c0-2.8-0.6-5-1.9-6.4s-3.3-2.1-6.3-2.1
						c-1.1,0-2.1,0.2-3.1,0.5c-0.9,0.3-1.8,0.8-2.5,1.4c-0.7,0.5-1.4,1.2-1.9,1.9c-0.5,0.7-0.9,1.5-1.2,2.3
						c-0.3,0.9-0.6,1.9-0.7,2.9c-0.1,0.9-0.1,2-0.1,3v17h-3.6L332.7,49L332.7,49z"/>
					<path class="st1" d="M376.3,49.1c-0.4,0.1-1,0.2-1.8,0.4s-1.6,0.3-2.4,0.3c-1.5,0.1-3-0.4-4.2-1.4c-1-0.9-1.4-2.6-1.4-4.9v-23
						H362v-3h4.4V8.7h3.6v8.8h5.9v3H370v21.6c0,0.8,0,1.4,0.1,2c0,0.5,0.1,1,0.4,1.4c0.2,0.4,0.5,0.7,0.9,0.8
						c0.6,0.2,1.2,0.3,1.8,0.2c0.5,0,1,0,1.5-0.1s1-0.2,1.5-0.3L376.3,49.1z"/>
					<path class="st1" d="M78.3,84.5c1.3,0,2.5-0.2,3.7-0.8c1-0.5,1.9-1.2,2.5-2.1c0.7-0.9,1.2-2,1.4-3.1c0.3-1.2,0.5-2.4,0.5-3.7
						c0-1.4-0.2-2.8-0.6-4.1c-0.3-1.1-0.9-2.2-1.6-3.1s-1.6-1.5-2.6-2c-1.1-0.5-2.2-0.7-3.4-0.7c-1.3,0-2.5,0.3-3.6,0.8
						c-1,0.5-1.8,1.3-2.5,2.2c-0.7,0.9-1.2,2-1.5,3.1c-0.6,2.4-0.6,5,0,7.4c0.3,1.1,0.8,2.2,1.5,3.1s1.5,1.6,2.5,2.1
						C75.7,84.3,77,84.6,78.3,84.5 M68.1,74.8c0-1.5,0.2-3,0.7-4.5c0.4-1.3,1.1-2.6,1.9-3.7c0.9-1,1.9-1.9,3.2-2.5
						c1.4-0.6,2.8-0.9,4.3-0.9s3.1,0.3,4.5,0.9c1.2,0.6,2.3,1.4,3.2,2.5c0.9,1.1,1.6,2.3,2,3.7c0.4,1.5,0.7,3,0.7,4.5
						s-0.2,3-0.7,4.5c-0.4,1.3-1.1,2.6-1.9,3.6c-0.9,1.1-2,1.9-3.2,2.5c-2.8,1.2-6,1.2-8.9,0c-1.2-0.6-2.3-1.4-3.2-2.5
						c-0.9-1.1-1.5-2.3-1.9-3.6C68.3,77.8,68.1,76.3,68.1,74.8"/>
					<path class="st1" d="M102.3,70h1.8v15.7h-1.8v-2.2c-0.2,0.3-0.5,0.6-0.8,0.9s-0.7,0.6-1.1,0.8c-0.4,0.3-0.9,0.5-1.4,0.6
						c-0.6,0.2-1.2,0.3-1.8,0.3c-0.9,0-1.8-0.1-2.7-0.4c-0.7-0.3-1.3-0.7-1.7-1.2c-0.5-0.5-0.8-1.2-1-1.8c-0.2-0.7-0.3-1.5-0.3-2.3
						V70h1.8v10.3c-0.1,1.1,0.3,2.2,0.9,3.1c0.8,0.8,2,1.2,3.1,1.1c0.7,0,1.4-0.1,2-0.4s1.1-0.7,1.5-1.2c0.4-0.6,0.7-1.2,0.9-1.9
						c0.2-0.8,0.3-1.6,0.3-2.4L102.3,70z"/>
					<path class="st1" d="M113.5,85.8c-0.2,0-0.5,0.1-0.9,0.2s-0.8,0.2-1.2,0.2c-0.8,0.1-1.5-0.2-2.1-0.7c-0.5-0.7-0.8-1.6-0.7-2.4
						V71.5h-2.2V70h2.2v-4.4h1.8V70h2.9v1.5h-2.9v10.8c0,0.4,0,0.7,0,1c0,0.2,0.1,0.5,0.2,0.7s0.3,0.3,0.5,0.4
						c0.3,0.1,0.6,0.1,0.9,0.1s0.5,0,0.8-0.1c0.2,0,0.5-0.1,0.7-0.2L113.5,85.8z"/>
					<path class="st1" d="M127,74.9c-0.3-1.1-0.8-2-1.7-2.8c-0.8-0.7-1.9-1-3-1c-0.8,0-1.7,0.2-2.4,0.6c-0.7,0.4-1.2,0.9-1.6,1.5
						c-0.5,0.7-0.8,1.4-1,2.2c-0.2,0.8-0.3,1.6-0.3,2.4s0.1,1.6,0.3,2.4c0.2,0.8,0.5,1.5,0.9,2.1s1,1.1,1.6,1.5
						c0.7,0.4,1.6,0.6,2.4,0.6c1.2,0.1,2.4-0.3,3.3-1.1c0.9-0.8,1.4-1.9,1.6-3.1h2c-0.1,0.8-0.4,1.6-0.8,2.4
						c-0.3,0.7-0.8,1.3-1.4,1.9c-0.6,0.5-1.3,0.9-2,1.2c-0.8,0.3-1.7,0.4-2.6,0.4c-1.1,0-2.2-0.2-3.2-0.6c-0.9-0.4-1.7-1-2.2-1.7
						c-0.6-0.8-1.1-1.7-1.3-2.6c-0.3-1.1-0.4-2.2-0.4-3.3c0-1.1,0.2-2.1,0.5-3.1s0.8-1.9,1.4-2.7c0.6-0.8,1.4-1.4,2.3-1.8
						c1-0.5,2-0.7,3.1-0.7c1.6-0.1,3.1,0.4,4.4,1.3c1.2,1,2,2.5,2.1,4.1L127,74.9z"/>
					<path class="st1" d="M143.7,77.8c0-0.9-0.1-1.8-0.3-2.6c-0.2-0.8-0.5-1.5-0.9-2.1s-1-1.1-1.6-1.4c-0.8-0.4-1.6-0.5-2.5-0.5
						s-1.7,0.2-2.5,0.6c-0.7,0.4-1.2,0.9-1.6,1.5c-0.4,0.6-0.8,1.4-0.9,2.1c-0.2,0.8-0.3,1.6-0.3,2.5s0.1,1.8,0.4,2.7
						c0.2,0.8,0.5,1.5,1,2.1c0.4,0.6,1,1.1,1.7,1.4s1.5,0.5,2.3,0.5c0.9,0,1.7-0.2,2.4-0.6s1.2-0.9,1.6-1.5c0.4-0.6,0.8-1.4,1-2.1
						C143.6,79.5,143.7,78.7,143.7,77.8 M138.4,86.1c-1,0-1.9-0.2-2.8-0.6c-0.9-0.3-1.7-0.9-2.3-1.6c-0.7-0.7-1.2-1.6-1.6-2.6
						c-0.4-1.2-0.6-2.4-0.6-3.6c0-1.1,0.2-2.2,0.5-3.2s0.7-1.8,1.4-2.6c0.6-0.8,1.4-1.4,2.3-1.8c1-0.5,2.1-0.7,3.2-0.7
						c1.1,0,2.2,0.2,3.2,0.7c0.9,0.4,1.7,1,2.3,1.8s1.1,1.7,1.4,2.6c0.3,1.1,0.4,2.2,0.4,3.2c0,1.2-0.2,2.3-0.5,3.4
						c-0.3,1-0.8,1.8-1.5,2.6c-0.6,0.7-1.4,1.3-2.3,1.7C140.4,85.9,139.4,86.1,138.4,86.1"/>
					<path class="st1" d="M150,85.7h-1.8V70h1.8v2.4h0.1c0.4-0.9,1.1-1.6,2-2.1c1.5-0.8,3.1-0.9,4.7-0.5c0.5,0.1,0.9,0.4,1.3,0.7
						c0.4,0.3,0.7,0.6,0.9,1s0.4,0.8,0.6,1.2c0.5-1,1.2-1.8,2.1-2.3c0.9-0.5,2-0.8,3-0.8c0.9,0,1.8,0.1,2.6,0.5
						c0.6,0.3,1.1,0.8,1.5,1.4s0.6,1.3,0.7,2c0.1,0.8,0.2,1.5,0.2,2.3v9.9h-1.8v-11c0.1-0.9-0.2-1.9-0.7-2.7c-0.7-0.7-1.7-1.1-2.7-1
						c-0.7,0-1.3,0.2-1.9,0.4c-0.6,0.3-1.2,0.8-1.6,1.3c-0.2,0.3-0.4,0.6-0.5,0.9c-0.3,0.7-0.4,1.5-0.5,2.3c0,0.4,0,0.7,0,1.1v8.5
						h-1.8V74.8c0.1-0.9-0.2-1.9-0.7-2.7c-0.7-0.7-1.7-1.1-2.7-1c-1.4,0-2.7,0.7-3.5,1.9c-0.2,0.3-0.4,0.6-0.5,0.9
						c-0.1,0.4-0.2,0.7-0.3,1.1s-0.1,0.8-0.2,1.2c0,0.4,0,0.7,0,1.1L150,85.7z"/>
					<path class="st1" d="M184.5,76.7c0-0.7-0.1-1.5-0.3-2.2c-0.2-0.6-0.5-1.2-0.9-1.8c-0.4-0.5-1-0.9-1.6-1.2
						c-0.7-0.3-1.4-0.5-2.2-0.4c-0.7,0-1.5,0.1-2.1,0.5c-0.6,0.3-1.1,0.7-1.6,1.2s-0.8,1.1-1,1.8c-0.3,0.7-0.4,1.4-0.5,2.1H184.5z
						 M174.2,78.2c0,0.8,0.1,1.6,0.3,2.4c0.2,0.7,0.5,1.4,1,2c0.4,0.6,1,1,1.6,1.3c0.7,0.3,1.5,0.5,2.3,0.5c1.1,0,2.2-0.3,3.1-0.9
						c0.9-0.7,1.5-1.6,1.7-2.7h2c-0.2,0.7-0.5,1.4-0.9,2.1c-0.4,0.6-0.8,1.2-1.4,1.7c-0.6,0.5-1.2,0.9-1.9,1.1
						c-0.8,0.3-1.7,0.4-2.6,0.4c-1.1,0-2.2-0.2-3.2-0.6c-0.9-0.4-1.7-1-2.2-1.8c-0.6-0.8-1.1-1.7-1.3-2.6c-0.3-1.1-0.4-2.1-0.4-3.2
						s0.2-2.2,0.5-3.2s0.8-1.9,1.4-2.7c0.6-0.8,1.4-1.4,2.3-1.8c0.9-0.4,2-0.7,3-0.7c2-0.1,3.8,0.7,5.1,2.2c1.2,1.5,1.8,3.7,1.8,6.5
						L174.2,78.2z"/>
					<path class="st1" d="M190.5,80.8c0.1,1.1,0.7,2.1,1.5,2.9c0.9,0.6,2.1,0.9,3.2,0.8c0.6,0,1.2-0.1,1.7-0.2
						c0.4-0.1,0.8-0.4,1.2-0.7c0.3-0.3,0.5-0.6,0.7-0.9s0.2-0.7,0.2-1.1c0.1-0.7-0.2-1.3-0.7-1.7c-0.6-0.4-1.2-0.7-1.9-0.9
						c-0.8-0.2-1.6-0.4-2.4-0.5c-0.8-0.1-1.6-0.4-2.4-0.7c-0.7-0.3-1.4-0.7-1.9-1.3c-0.5-0.7-0.8-1.5-0.7-2.4c0-1.2,0.5-2.4,1.4-3.2
						c1.2-0.9,2.6-1.4,4.1-1.3c1.5-0.1,2.9,0.3,4.1,1.1c1.2,0.9,1.9,2.3,1.9,3.8h-1.9c-0.1-1-0.6-2-1.4-2.6
						c-0.9-0.5-1.9-0.8-2.9-0.8c-0.9-0.1-1.9,0.2-2.6,0.8c-0.6,0.5-1,1.2-0.9,2c0,0.6,0.2,1.2,0.8,1.6s1.2,0.7,1.9,0.9
						c0.8,0.2,1.6,0.4,2.4,0.6c0.8,0.2,1.7,0.4,2.4,0.8c0.7,0.3,1.4,0.8,1.9,1.3c0.5,0.7,0.8,1.5,0.8,2.4c0,0.7-0.2,1.4-0.5,2
						s-0.8,1.1-1.3,1.4c-0.6,0.4-1.3,0.7-2,0.9c-0.8,0.2-1.7,0.3-2.6,0.3c-0.8,0-1.7-0.1-2.5-0.4c-1.3-0.5-2.4-1.5-3-2.8
						c-0.3-0.7-0.5-1.4-0.5-2.1L190.5,80.8z"/>
					<path class="st1" d="M32.5,85.9h-8.3c-0.7,0-1.2-0.6-1.2-1.2s0.6-1.2,1.2-1.2h8.3c0.7,0,1.2,0.6,1.2,1.2S33.1,85.9,32.5,85.9"
						/>
					<path class="st1" d="M19.9,76.5c-0.7,0-1.2-0.6-1.2-1.3c0-0.6,0.5-1.1,1.1-1.2l16.8-1.4c0.7-0.1,1.3,0.5,1.4,1.1
						c0.1,0.7-0.5,1.3-1.1,1.4l-16.7,1.4H19.9"/>
					<path class="st1" d="M19.9,81.6c-0.7,0-1.2-0.6-1.2-1.3c0-0.6,0.5-1.1,1.1-1.2l16.8-1.4c0.7-0.1,1.3,0.4,1.4,1.1
						s-0.4,1.3-1.1,1.4h-0.1l-16.7,1.4H19.9"/>
					<path class="st1" d="M34.9,69.4H21.7c-2.9,0-5.4-2.1-5.8-5c-0.9-6.7-4.2-11-7.7-15.5c-3.8-4.9-7.6-10-8.2-18
						C-1,15.2,10.9,1.7,26.5,0.7c7.6-0.5,15.1,2.1,20.8,7.1c5.9,5.3,9.3,12.9,9.3,20.9c-0.1,6.5-2.4,12.8-6.4,18
						c-1,1.3-2.6,1.9-4.3,1.7c-4.3-0.4-8.3-2.2-11.4-5.2c-1.8,1.5-3.7,2.9-5.6,4.2l-0.7,0.4l-0.7-0.4c-2.2-1.4-4.3-3-6.2-4.8
						c-1.9,1.9-4.2,3.3-6.7,4.3c-0.6,0.2-1.4-0.1-1.6-0.7c-0.2-0.6,0.1-1.3,0.7-1.6c2.2-0.9,4.1-2.1,5.8-3.7c-4-3.9-8-9-8-14.3
						c0-3.4,2-6.5,5.2-7.7c2.4-1,5.1-0.7,7.3,0.7c2.5,1.8,4,4.6,3.9,7.7c-0.1,4.9-1.8,9.5-4.8,13.3c1.7,1.5,3.4,2.8,5.2,4.1
						c0.9-0.6,2.7-1.9,4.7-3.6c-3.9-5.3-4.2-11.9-4.2-13.9c0-5.2,3-8.8,7.7-9c4.4-0.2,8.3,3.1,8.6,7.5c0.3,5.8-4.2,11.5-8.6,15.5
						c2.7,2.6,6.1,4.1,9.8,4.4c0.8,0.1,1.5-0.2,2-0.8c3.7-4.7,5.7-10.4,5.8-16.4c0-7.3-3.1-14.2-8.5-19c-5.5-5-13-7.3-20.3-6.4
						C11.7,5.1,1.7,17,2.5,30.7c0.5,7.3,4,11.8,7.7,16.7c3.5,4.6,7.2,9.4,8.2,16.7c0.2,1.6,1.6,2.9,3.3,2.9h13.2
						c1.7,0,3.1-1.3,3.3-2.9c0.1-0.7,0.7-1.2,1.4-1.1s1.2,0.7,1.1,1.4C40.3,67.2,37.8,69.4,34.9,69.4 M36.9,20.8h-0.3
						c-3.3,0.2-5.3,2.6-5.3,6.5c0,1.7,0.3,7.5,3.6,12.2c4-3.7,8-8.7,7.7-13.5C42.4,23,39.9,20.8,36.9,20.8 M19.7,20.8
						c-0.7,0-1.4,0.1-2.1,0.4c-2.2,0.9-3.6,3-3.6,5.4c0,4.4,3.5,8.9,7.1,12.4c2.6-3.3,4-7.4,4.2-11.7c0.1-2.2-1-4.3-2.8-5.6
						C21.7,21.1,20.7,20.8,19.7,20.8"/>
					<polygon class="st1" points="69.1,49 69.1,5.2 97.3,5.2 97.3,8.7 73.2,8.7 73.2,24.5 95.1,24.5 95.1,28 73.2,28 73.2,49 					
						"/>
				</g>
			</g>
		</g>
	</g>
</g>
<g>
	<path class="st1" d="M380.7,0.8h-2v5.6H378V0.8h-2V0.2h4.7V0.8z M388.3,6.4h-0.8V0.9l0,0l-2.1,5.6h-0.5l-2.1-5.6l0,0v5.6H382V0.2
		h1.4l1.8,4.6l0,0l1.7-4.6h1.4V6.4z"/>
</g>
</svg>
